<!-- filepath: /home/birch/projects/farm-tracks/src/main/resources/static/logo-farm-tracks-icon.svg -->
<svg xmlns="http://www.w3.org/2000/svg" viewBox="0 0 256 256" role="img" aria-labelledby="title desc">
  <title id="title">Farm Tracks Icon</title>
  <desc id="desc">Farm Tracks icon with joined FT lettering and paw prints.</desc>

  <defs>
    <linearGradient id="bg" x1="0" y1="0" x2="1" y2="1">
      <stop offset="0%" stop-color="#e8f5e9"/>
      <stop offset="100%" stop-color="#c8e6c9"/>
    </linearGradient>
    <style>
      .ring { fill: none; stroke: #4f7d57; stroke-width: 8; }
      .mark { fill: #2e5033; }
      .paw { fill: #6d4c41; }
    </style>
  </defs>

  <rect x="8" y="8" width="240" height="240" rx="42" fill="url(#bg)"/>
  <rect x="20" y="20" width="216" height="216" rx="34" class="ring"/>

  <!-- Joined FT: T begins at F's second horizontal bar -->
  <g class="mark">
    <!-- F vertical -->
    <rect x="58" y="42" width="18" height="132" rx="4"/>
    <!-- F top bar -->
    <rect x="58" y="42" width="96" height="18" rx="4"/>
    <!-- F second bar -->
    <rect x="58" y="92" width="66" height="18" rx="4"/>
    <!-- T top bar -->
    <rect x="118" y="68" width="86" height="18" rx="4"/>
    <!-- T vertical (starts at second F bar) -->
    <rect x="152" y="68" width="18" height="132" rx="4"/>
  </g>

  <!-- paws -->
  <g transform="translate(198,176) scale(.50) rotate(-12)">
    <ellipse class="paw" cx="0" cy="14" rx="22" ry="18"/>
    <ellipse class="paw" cx="-20" cy="-12" rx="9" ry="12"/>
    <ellipse class="paw" cx="-5" cy="-24" rx="9" ry="12"/>
    <ellipse class="paw" cx="10" cy="-24" rx="9" ry="12"/>
    <ellipse class="paw" cx="25" cy="-12" rx="9" ry="12"/>
  </g>
  <g transform="translate(102,158) scale(.60) rotate(10)">
    <ellipse class="paw" cx="0" cy="14" rx="22" ry="18"/>
    <ellipse class="paw" cx="-20" cy="-12" rx="9" ry="12"/>
    <ellipse class="paw" cx="-5" cy="-24" rx="9" ry="12"/>
    <ellipse class="paw" cx="10" cy="-24" rx="9" ry="12"/>
    <ellipse class="paw" cx="25" cy="-12" rx="9" ry="12"/>
  </g>
  <!--
  <g transform="translate(182,48) scale(.40) rotate(30)">
    <ellipse class="paw" cx="0" cy="14" rx="22" ry="18"/>
    <ellipse class="paw" cx="-20" cy="-12" rx="9" ry="12"/>
    <ellipse class="paw" cx="-5" cy="-24" rx="9" ry="12"/>
    <ellipse class="paw" cx="10" cy="-24" rx="9" ry="12"/>
    <ellipse class="paw" cx="25" cy="-12" rx="9" ry="12"/>
  </g>
  -->
</svg>