<!-- filepath: /home/birch/projects/farm-tracks/src/main/resources/static/logo-farm-tracks-icon.svg -->
<svg xmlns="http://www.w3.org/2000/svg" viewBox="0 0 256 256" role="img" aria-labelledby="title desc">
  <title id="title">Farm Tracks Icon</title>
  <desc id="desc">Farm Tracks icon with joined FT lettering and paw prints.</desc>

  <defs>
    <linearGradient id="bg" x1="0" y1="0" x2="1" y2="1">
      <stop offset="0%" stop-color="#e8f5e9"/>
      <stop offset="100%" stop-color="#c8e6c9"/>
    </linearGradient>
    <style>
      .ring { fill: none; stroke: #4f7d57; stroke-width: 8; }
      .mark { fill: #2e5033; }
      .paw { fill: #6d4c41; }
    </style>
  </defs>

  <rect x="0" y="0" width="256" height="256" rx="0" fill="url(#bg)"/>

  <!-- <rect x="20" y="20" width="216" height="216" rx="34" class="ring"/> -->

  <!-- add a circle that is centered and covers 80% of the surface-->
  <!-- <circle cx="128" cy="128" r="102" class="ring"/> -->

  <!-- Joined FT: T begins at F's second horizontal bar -->
  <g class="mark">
    <!-- F vertical -->
    <rect x="58" y="58" width="18" height="112" rx="4"/>
    <!-- F top bar -->
    <rect x="58" y="58" width="76" height="18" rx="4"/>
    <!-- F second bar -->
    <rect x="58" y="102" width="56" height="18" rx="4"/>
    <!-- T top bar -->
    <rect x="118" y="83" width="76" height="18" rx="4"/>
    <!-- T vertical (starts at second F bar) -->
    <rect x="148" y="83" width="18" height="102" rx="4"/>
  </g>

  <!-- paws -->
  <g transform="translate(192,130) scale(.70) rotate(-12)">
    <ellipse class="paw" cx="0" cy="14" rx="22" ry="18"/>
    <ellipse class="paw" cx="-20" cy="-12" rx="9" ry="12"/>
    <ellipse class="paw" cx="-5" cy="-24" rx="9" ry="12"/>
    <ellipse class="paw" cx="10" cy="-24" rx="9" ry="12"/>
    <ellipse class="paw" cx="25" cy="-12" rx="9" ry="12"/>
  </g>
  <g transform="translate(148,188) scale(.70) rotate(20)">
    <ellipse class="paw" cx="0" cy="14" rx="22" ry="18"/>
    <ellipse class="paw" cx="-20" cy="-12" rx="9" ry="12"/>
    <ellipse class="paw" cx="-5" cy="-24" rx="9" ry="12"/>
    <ellipse class="paw" cx="10" cy="-24" rx="9" ry="12"/>
    <ellipse class="paw" cx="25" cy="-12" rx="9" ry="12"/>
  </g>
  <g transform="translate(82,188) scale(.70) rotate(50)">
    <ellipse class="paw" cx="0" cy="14" rx="22" ry="18"/>
    <ellipse class="paw" cx="-20" cy="-12" rx="9" ry="12"/>
    <ellipse class="paw" cx="-5" cy="-24" rx="9" ry="12"/>
    <ellipse class="paw" cx="10" cy="-24" rx="9" ry="12"/>
    <ellipse class="paw" cx="25" cy="-12" rx="9" ry="12"/>
  </g>
</svg>